<?xml version="1.0" standalone="no"?>
<!DOCTYPE svg PUBLIC "-//W3C//DTD SVG 20010904//EN"
 "http://www.w3.org/TR/2001/REC-SVG-20010904/DTD/svg10.dtd">
<svg version="1.0" xmlns="http://www.w3.org/2000/svg"
 width="700.000000pt" height="700.000000pt" viewBox="0 0 700.000000 700.000000"
 preserveAspectRatio="xMidYMid meet">
<metadata>
Created by potrace 1.11, written by Peter Selinger 2001-2013
</metadata>
<g transform="translate(0.000000,700.000000) scale(0.100000,-0.100000)"
fill="#000000" stroke="none">
<path d="M4735 5502 c-792 -495 -1368 -1072 -1864 -1869 l-82 -131 63 -104
c197 -326 436 -644 713 -950 306 -336 788 -723 1229 -988 l88 -53 32 18 c740
429 1362 1010 1833 1711 122 183 223 347 223 364 0 16 -83 153 -184 305 -418
628 -870 1092 -1473 1513 -112 79 -418 272 -430 272 -5 0 -71 -39 -148 -88z
m229 -59 c680 -408 1246 -941 1688 -1588 98 -144 218 -338 218 -353 0 -7 -32
-65 -72 -129 -374 -614 -800 -1087 -1353 -1500 -176 -131 -488 -335 -548 -359
-11 -4 -63 23 -149 77 -658 410 -1169 890 -1588 1493 -93 133 -211 316 -246
381 l-17 33 63 103 c328 538 727 1002 1170 1360 269 218 709 519 759 519 7 0
41 -17 75 -37z"/>
<path d="M4761 5331 c-359 -225 -761 -547 -1014 -811 -219 -228 -514 -609
-688 -887 -44 -69 -79 -129 -79 -134 0 -13 136 -225 240 -375 413 -594 913
-1064 1559 -1467 l103 -65 92 55 c299 182 595 406 872 661 316 290 664 724
908 1129 l37 63 -57 92 c-458 743 -1016 1299 -1770 1766 l-81 50 -122 -77z
m197 -363 c248 -336 369 -628 341 -824 -12 -86 -39 -150 -137 -331 -94 -173
-135 -265 -168 -376 -51 -170 -59 -236 -59 -492 0 -293 11 -361 86 -512 77
-156 77 -237 -1 -326 -52 -59 -115 -85 -168 -69 -56 17 -116 73 -142 134 -32
74 -23 133 40 261 76 154 84 205 85 507 0 239 -2 263 -27 376 -34 155 -88 292
-184 469 -136 249 -156 304 -155 430 1 188 125 455 358 773 29 39 55 72 58 72
3 0 36 -42 73 -92z m880 -1058 c99 -16 167 -47 226 -101 195 -178 178 -468
-42 -721 -30 -34 -64 -69 -75 -77 -19 -14 -19 -12 -13 62 9 87 -7 212 -33 272
-20 46 -69 98 -115 122 -40 22 -184 29 -259 13 -232 -48 -388 -270 -388 -550
0 -142 43 -227 133 -264 84 -36 148 -12 175 64 21 59 32 61 95 21 85 -54 122
-155 84 -229 -23 -44 -90 -100 -138 -112 -123 -34 -290 68 -366 223 -61 123
-77 203 -76 387 1 188 20 301 73 434 97 242 305 415 549 456 68 11 99 11 170
0z m-1662 -21 c249 -77 420 -255 499 -519 44 -148 64 -357 45 -490 -35 -259
-170 -440 -353 -474 -81 -15 -185 41 -226 122 -35 68 5 171 87 223 64 40 77
38 91 -15 38 -151 246 -112 296 56 34 114 10 310 -52 436 -57 114 -185 214
-309 242 -71 17 -182 17 -236 1 -132 -38 -199 -181 -185 -394 l6 -90 -55 54
c-75 73 -170 218 -194 297 -57 183 9 399 151 497 107 75 293 98 435 54z"/>
<path d="M600 5445 c-234 -41 -426 -74 -427 -74 -2 -1 -3 -876 -3 -1946 l0
-1945 440 0 439 0 3 833 3 832 28 90 c80 254 228 415 385 415 101 0 163 -54
199 -178 16 -52 18 -145 21 -1025 l3 -967 445 0 445 0 -4 1033 c-4 867 -7
1045 -20 1112 -62 328 -185 516 -403 616 -179 82 -458 95 -701 34 -113 -29
-276 -105 -351 -165 l-52 -40 0 725 c0 574 -3 725 -12 724 -7 0 -204 -34 -438
-74z"/>
</g>
</svg>
